<svg version="1.2" xmlns="http://www.w3.org/2000/svg" viewBox="0 0 200 112" width="200" height="112">
	<title>gpl-v3-logo-svg</title>
	<style>
		.s0 { fill: #bd0000 } 
		.s1 { fill: none;stroke: #bd0000;stroke-width: 2.3 } 
	</style>
	<g id="layer1">
		<g id="g2486">
			<path id="path2579" fill-rule="evenodd" class="s0" d="m35 8.2c0 0 114.1 0 114.1 0 0 0 25.9 0 25.9 0 0 0 7.5 0 7.7 0-2.7 0.2-5.9 1-9.2 2.3q-1.7 0.7-3.4 1.5-1.7 0.9-3.4 1.9c-3 1.7-5.8 3.7-8.2 5.8-3.3 2.9-6 6.1-7.6 9.1 0 0-1.1 2-1.1 2 0 0 1.9-1.3 1.9-1.3 0 0 0.1-0.1 0.1-0.1l0.6-0.3c3.9-2.6 7.9-4.7 11.3-6.1 4.2-1.7 7.6-2.4 9.4-1.8q0.9 0.3 1.2 0.9c0.9 2.4-3.6 8.8-12.6 15.6q-2.9 1.8-5.8 4-1.8 1.3-3.5 2.8-1 0.9-2 1.8 1.2-0.5 2.4-1.1c9.8-4.2 18-5.8 19.1-3.5q0.4 0.8-0.2 1.9c-1.6 3.3-9.1 9-18.9 13.8q-0.1 0.1-0.3 0.1-1.1 0.6-2.2 1.1c-3.1 1.3-6.1 2.4-9 3.3q-0.9 0.2-1.8 0.5c-8.9 2.2-15.9 1.5-18.7-2.7q-0.4-0.6-0.7-1.2c-2.6-6.3 3.2-17 14.1-27.3 3.4-3.2 7.3-6.3 11.6-9.3q0.4-0.3 0.9-0.6c7.7-5.3 15.6-9.2 22.6-11.4-7.3 1.8-15.6 5.5-23.9 10.7q-3.4 2.1-6.7 4.5-2.7 2-5.2 4.1c-7.4 6.2-13.4 12.9-17.6 19.2-3.9 6-6.1 11.7-6.4 16.5q-0.1 2.6 0.6 4.8 0.3 0.7 0.5 1.4 0.5 0.9 1 1.7c2.2 2.9 5.8 4.5 10.4 4.9 0 0-112 0-112 0q0 0 0 0c0 0 15.9-69.5 15.9-69.5zm68.8 32.3q0.2 2.6 0.5 5.3c0.6 6.2 1.8 12 3.4 17.3 0.6-4.7 2.8-10.1 6.5-15.9q0.4-0.6 0.8-1.1-0.7-1.8-1.3-3.7-0.9-3.1-1.7-6.1c-3-11.1-4.4-21.1-3.9-28-3.4 8.3-5 19.7-4.3 32.2zm-74.1-22.5q0 0-0.1 0-1.5 0.9-1.8 2.2c0 0-7.5 33.7-7.5 33.7q-0.3 1.3 0.9 2.1 1.2 0.8 3.4 0.8c0 0 16.9 0 16.9 0q2.2 0 3.7-0.8 1.1-0.6 1.6-1.5 0.2-0.3 0.3-0.6c0 0 3.7-16.9 3.7-16.9 0 0-13 0-13 0 0 0-0.7 3.1-0.7 3.1 0 0 7.1 0 7.1 0 0 0-3 13.5-3 13.5 0 0-0.1 0-0.1 0 0 0-14.9 0-14.9 0 0 0 2-8.8 2-8.8 0 0 5.4-24.4 5.4-24.4 0 0 14.9 0 14.9 0 0 0-2 8.9-2 8.9 0 0 6 0 6 0 0 0 2-9.1 2-9.1q0.3-1.3-0.9-2.2-1.2-0.8-3.3-0.8c0 0-17 0-17 0q-0.1 0-0.2 0-1.9 0.1-3.4 0.8zm21.6 36.8c0 0-0.5 2-0.5 2 0 0 5.9 0 5.9 0 0 0 0.5-2.2 0.5-2.2l3-13.5c0 0 15.4 0 15.4 0q2.2 0 3.7-0.9 1.6-0.8 1.9-2.1c0 0 4-17.9 4-17.9q0.3-1.3-0.9-2.2-1.2-0.8-3.4-0.8c0 0-21.3 0-21.3 0 0 0-8.3 37.6-8.3 37.6zm30.6-5.5c0 0-1.6 7.5-1.6 7.5 0 0 21 0 21 0q-0.3-1.6-0.5-3.2c0 0-14 0-14 0 0 0 1.5-6.5 1.5-6.5 0 0 6.6-29.9 6.6-29.9 0 0-5.9 0-5.9 0 0 0-7.1 32.1-7.1 32.1zm-1.6 7.5q0 0 0 0zm-1-36.4c0 0-3.9 17.5-3.9 17.5 0 0-14.5 0-14.5 0 0 0 3.8-17.5 3.8-17.5 0 0 14.6 0 14.6 0zm-28.4 39.5q-0.8 0.3-1.4 0.9-0.5 0.6-0.7 1.4-0.1 0.7 0.1 1.2 0.2 0.6 0.9 1 0.4 0.2 1.6 0.5c0 0 1.4 0.5 1.4 0.5q0.4 0.1 0.5 0.3 0.1 0.2 0.1 0.5-0.1 0.4-0.4 0.7-0.2 0.2-0.7 0.4-0.5 0.2-1.1 0.2-0.7 0-1.2-0.2-0.4-0.2-0.5-0.6-0.2-0.3-0.1-0.9v-0.2h-1.7c0 0 0 0.2 0 0.2q-0.2 1 0.1 1.7 0.4 0.8 1.2 1.2 0.8 0.4 2 0.4 1 0 1.9-0.4 0.8-0.3 1.4-1 0.6-0.7 0.8-1.4 0.1-0.8-0.1-1.4-0.3-0.7-1.1-1.1-0.5-0.2-1.9-0.5c-1-0.3-1.3-0.5-1.4-0.5q0 0 0-0.1c-0.1 0-0.2-0.2-0.1-0.5q0.1-0.4 0.6-0.7 0.5-0.4 1.4-0.4 0.7 0 1.1 0.3 0 0 0.1 0.1 0 0 0.1 0.1 0.2 0.3 0.1 0.9c0 0 0 0.2 0 0.2 0 0 1.7 0 1.7 0 0 0 0-0.2 0-0.2q0.2-0.9-0.1-1.6-0.3-0.7-1.1-1-0.7-0.4-1.7-0.4-0.1 0-0.2 0-0.8 0.1-1.6 0.4zm15.6 0q-0.5 0.2-0.8 0.7-0.2 0.4-0.3 1c0 0-0.1 0.3-0.1 0.5-0.3 0-1 0-1 0 0 0-0.3 1.4-0.3 1.4 0 0 0.7 0 1 0-0.2 0.6-1.2 5.5-1.2 5.5 0 0 1.6 0 1.6 0 0 0 1.1-5.1 1.2-5.5 0.3 0 1.2 0 1.2 0 0 0 0.3-1.4 0.3-1.4 0 0-0.8 0-1.2 0 0-0.1 0.1-0.2 0.1-0.2 0-0.3 0.1-0.5 0.2-0.6q0 0 0 0 0.1-0.1 0.1-0.1 0.1-0.1 0.5-0.1c0 0 0.8 0.1 0.8 0.1 0 0 0.1-0.2 0.1-0.2 0 0 0.5-1.3 0.5-1.3 0 0-0.4 0-0.4 0 0 0-1-0.1-1-0.1q-0.1 0-0.3 0-0.6 0-1 0.3zm5-0.3q0 0 0 0zm0 0c0 0-0.6 0.3-0.6 0.3 0 0-1.3 0.7-1.3 0.7 0 0-0.2 1.2-0.3 1.5-0.2 0-0.8 0-0.8 0 0 0-0.3 1.4-0.3 1.4 0 0 0.6 0 0.8 0-0.2 0.6-0.8 3.3-0.8 3.3-0.1 0.6-0.1 0.9-0.1 1.1q0 0.2 0 0.3 0.1 0.4 0.5 0.6 0.3 0.2 1 0.2c0 0 1.1-0.1 1.1-0.1 0 0 0-0.2 0-0.2l0.1-1.3-0.8 0.1c0 0-0.2 0-0.2 0q0 0 0 0 0-0.1 0-0.1 0 0 0 0c0-0.1 0.1-0.4 0.1-0.4 0 0 0.6-3.1 0.7-3.5 0.3 0 1.1 0 1.1 0 0 0 0.3-1.4 0.3-1.4 0 0-0.7 0-1.1 0 0.2-0.5 0.6-2.5 0.6-2.5zm-54.8 9.4c0 0 1.7 0 1.7 0 0 0 0.8-3.6 0.9-4 0.4 0 4.1 0 4.1 0l0.4-1.6c0 0-3.5 0-4.1 0 0.1-0.5 0.4-1.8 0.4-2.1 0.5 0 4.8 0 4.8 0l0.3-1.6c0 0-6.4 0-6.4 0 0 0-2.1 9.3-2.1 9.3zm10-6.8q-0.1 0.1-0.2 0.2c0-0.1 0.1-0.3 0.1-0.3 0 0-1.6 0-1.6 0 0 0-1.5 6.9-1.5 6.9 0 0 1.7 0 1.7 0 0 0 0.7-3.6 0.7-3.6q0.2-0.6 0.5-1.1 0.1-0.3 0.4-0.5 0.2-0.2 0.5-0.2 0.3 0 0.6 0.2c0 0 0.2 0.2 0.2 0.2l0.9-1.5c0 0-0.2-0.2-0.2-0.2q-0.6-0.3-1.2-0.3-0.1 0-0.2 0-0.3 0-0.7 0.2zm3.4 0.7q-1.1 0.9-1.4 2.6-0.4 1.7 0.3 2.6 0.7 1 2.2 1 1.2 0 2.1-0.6 0.9-0.6 1.4-1.6c0 0 0.2-0.3 0.2-0.3 0 0-1.8 0-1.8 0q-0.4 0.5-0.8 0.8-0.4 0.3-0.9 0.3-0.4 0-0.7-0.2-0.1-0.1-0.2-0.3-0.3-0.3-0.3-0.8 0-0.2 0-0.3c0.5 0 4.7 0 4.7 0l0.1-0.5q0.2-0.6 0.2-1.1 0-0.9-0.5-1.6-0.7-0.9-2.1-0.9-0.1 0-0.3 0-1.2 0.1-2.2 0.9zm4.8 3.7q0 0 0 0zm2.7-3.7q-1.1 0.9-1.5 2.6-0.1 0.4-0.1 0.8 0 0.1 0 0.3 0 0.9 0.4 1.5 0.7 1 2.3 1 1.2 0 2-0.6 0.9-0.6 1.4-1.6c0 0 0.2-0.3 0.2-0.3 0 0-1.8 0-1.8 0q-0.3 0.5-0.7 0.8-0.4 0.3-0.9 0.3-0.6 0-0.9-0.4-0.1 0-0.1-0.1-0.2-0.2-0.2-0.6 0-0.1 0-0.2 0 0 0 0 0-0.1 0-0.1 0-0.1 0-0.2c0.5 0 4.7 0 4.7 0 0 0 0.1-0.5 0.1-0.5q0.1-0.6 0.1-1.1 0-0.9-0.4-1.6-0.7-0.9-2.1-0.9-0.2 0-0.3 0-1.3 0.1-2.2 0.9zm4.7 3.7q0 0 0 0zm15.8-3.9q-1.3 0.9-1.7 2.8-0.1 0.6-0.1 1.1 0 0.9 0.5 1.5 0.7 1 2.1 1 0.9 0 1.7-0.4 0.9-0.4 1.4-1.2 0.6-0.7 0.9-2 0.3-1.6-0.4-2.6-0.7-0.9-2.1-0.9-0.2 0-0.3 0-1.1 0-2 0.7zm25.9-0.5q-0.7 0.2-1.2 0.7-0.4 0.4-0.8 1.2c0 0-0.1 0.3-0.1 0.3 0 0 1.7 0 1.7 0q0.3-0.6 0.6-0.8 0.4-0.2 1-0.2 0.6 0 0.9 0.2 0 0 0.1 0.1 0 0 0 0 0.1 0.2 0 0.6c0 0 0 0.1 0 0.1q-0.7 0.2-1.8 0.4c0 0-1 0.1-1 0.1q-0.5 0.2-1 0.4-0.4 0.3-0.7 0.7-0.4 0.4-0.5 1 0 0.2 0 0.4 0 0.7 0.3 1.1 0.6 0.6 1.7 0.6 0.7 0 1.4-0.2 0.4-0.2 0.9-0.5c0 0.1 0 0.2 0 0.3 0 0 0.1 0.3 0.1 0.3 0 0 1.7 0 1.7 0 0 0-0.1-0.4-0.1-0.4q-0.1-0.3-0.1-0.7c0-0.1 0.1-0.6 0.3-1.8 0 0 0.4-1.4 0.4-1.4 0 0 0.1-1.1 0.1-1.1q0-0.5-0.2-0.8-0.2-0.4-0.8-0.6-0.5-0.2-1.3-0.2-0.2 0-0.4 0-0.6 0-1.2 0.2zm3.3 6.8q0 0 0 0zm4.5-6.8q-0.1 0.1-0.2 0.2c0-0.1 0-0.3 0-0.3 0 0-1.5 0-1.5 0 0 0-1.5 6.9-1.5 6.9 0 0 1.6 0 1.6 0q0 0 0 0c0 0 0.8-3.6 0.8-3.6q0.1-0.6 0.4-1.1 0.2-0.3 0.4-0.5 0.3-0.2 0.6-0.2 0.3 0 0.5 0.2c0 0 0.3 0.2 0.3 0.2 0 0 0.8-1.5 0.8-1.5 0 0-0.2-0.2-0.2-0.2q-0.5-0.3-1.1-0.3-0.1 0-0.2 0-0.4 0-0.7 0.2zm-1.6 6.8q0 0 0 0zm5-6.1q-1.1 0.9-1.5 2.6-0.3 1.7 0.3 2.6 0.8 1 2.3 1 1.1 0 2-0.6 0.9-0.6 1.4-1.6c0 0 0.2-0.3 0.2-0.3 0 0-1.8 0-1.8 0q-0.3 0.5-0.7 0.8-0.4 0.3-0.9 0.3-0.6 0-0.9-0.3 0-0.1 0-0.1-0.1 0-0.1-0.1-0.2-0.3-0.2-0.8 0-0.2 0-0.3c0.5 0 4.7 0 4.7 0l0.1-0.5q0.1-0.6 0.1-1.1 0-0.9-0.4-1.6-0.7-0.9-2.1-0.9-0.2 0-0.3 0-1.3 0.1-2.2 0.9zm4.7 3.7q0 0 0 0zm-27 2.4c0 0 1.5 0 1.5 0 0 0 1.3-2.7 2-4 0 0.2 0.1 4 0.1 4 0 0 1.5 0 1.5 0 0 0 3.8-6.9 3.8-6.9 0 0-1.7 0-1.7 0q0 0 0 0c0 0-2.1 4-2.2 4 0 0-0.1-4-0.1-4 0 0-1.6 0-1.6 0 0 0-1.8 3.8-1.8 3.8 0 0.1-0.1 0.2-0.2 0.3 0 0-0.2-4.1-0.2-4.1 0 0-1.7 0-1.7 0 0 0 0.6 6.9 0.6 6.9zm7.2-6.9q0 0 0 0zm-47.7 1.3q0.7 0 1 0.5 0.1 0.2 0.1 0.6 0 0.1 0 0.1c0 0-2.8 0-2.8 0 0.1-0.3 0.3-0.6 0.6-0.8q0.5-0.4 1.1-0.4 0 0 0 0zm7.5 0q0.5 0 0.8 0.3 0.1 0.1 0.1 0.2 0.2 0.2 0.2 0.6 0 0.1-0.1 0.1c0 0-2.8 0-2.8 0 0.2-0.3 0.4-0.6 0.6-0.8q0.5-0.4 1.1-0.4 0 0 0.1 0zm57.6 0q0.6 0 0.9 0.5 0.2 0.2 0.2 0.6 0 0.1-0.1 0.1c0 0-2.8 0-2.8 0 0.2-0.3 0.4-0.6 0.6-0.8q0.5-0.4 1.2-0.4 0 0 0 0zm-37.3 0q0.6 0 0.9 0.5 0.4 0.5 0.1 1.5-0.2 1.2-0.8 1.7-0.6 0.6-1.3 0.6-0.5 0-0.8-0.4-0.1 0-0.1-0.1-0.2-0.3-0.2-0.8 0-0.3 0.1-0.8 0.2-1.1 0.8-1.7 0.5-0.4 1.1-0.5 0.1 0 0.2 0zm25.3 3.4q-0.3 0.4-0.8 0.7-0.5 0.2-1 0.2-0.5 0-0.7-0.2 0 0 0-0.1 0 0-0.1 0 0 0 0 0 0-0.1 0-0.1 0 0 0 0 0-0.1 0-0.1 0 0 0 0 0-0.1 0-0.2 0.1-0.2 0.2-0.3 0.2-0.2 0.4-0.3 0.3-0.1 0.9-0.2c0.6-0.1 1-0.2 1.4-0.3q-0.1 0.6-0.3 0.9z"/>
			<g id="g2587">
				<path id="path2589" fill-rule="evenodd" class="s0" d="m8.1 84.8h9.4l-0.7 3.2h-5.9l-1 4.1h5.6l-0.7 2.7h-5.6l-1.5 6.4h-3.4z"/>
			</g>
			<g id="g2591">
				<path id="path2593" fill-rule="evenodd" class="s0" d="m16.2 101.2l1.6-6.9c0.4-1.7 0.7-3.6 0.9-4.5h2.9q-0.1 1.1-0.3 2.3h0.1c0.9-1.6 2.2-2.8 3.8-2.8q0.3 0 0.6 0.1l-0.8 3.3c-0.1-0.1-0.3-0.2-0.5-0.2-2.2 0-3.3 2.1-3.9 4.4l-1 4.3z"/>
			</g>
			<g id="g2595">
				<path id="path2597" fill-rule="evenodd" class="s0" d="m34.9 100.7c-1.4 0.4-3.1 0.5-4.3 0.5-3.4 0-5-1.5-4.8-4.6 0.1-3.6 2.9-7.3 7.1-7.3 2.3 0 4 1.3 3.8 3.5-0.1 2.9-3 4-7.7 3.9 0 0.3 0.1 0.9 0.3 1.3 0.4 0.3 1.2 0.5 2.2 0.5 1.3 0 2.4 0.1 3.3-0.3zm-2.6-8.6c-1.6 0-2.5 0.8-2.8 1.8 2.6 0 4-0.1 4-1.1 0.1-0.4-0.4-0.7-1.2-0.7z"/>
			</g>
			<g id="g2599">
				<path id="path2601" fill-rule="evenodd" class="s0" d="m47 100.7c-1.3 0.4-3 0.5-4.3 0.5-3.3 0-4.9-1.5-4.8-4.6 0.2-3.6 2.9-7.3 7.1-7.3 2.4 0 4 1.3 3.9 3.5-0.2 2.9-3.1 4-7.7 3.9 0 0.3 0 0.9 0.3 1.3 0.4 0.3 1.2 0.5 2.2 0.5 1.2 0 2.3 0.1 3.2-0.3zm-2.5-8.6c-1.6 0-2.6 0.8-2.9 1.8 2.7 0 4-0.1 4.1-1.1 0-0.4-0.5-0.7-1.2-0.7z"/>
			</g>
			<g id="g2603">
				<path id="path2605" fill-rule="evenodd" class="s0" d="m61.5 101.2c0-0.7 0.1-1.6 0.2-2.6-1.2 2-2.7 2.6-4.1 2.6-2.1 0-3.4-1.2-3.3-3.7 0.2-3.9 3-8.2 8.7-8.2 1.4 0 2.9 0.2 3.8 0.5l-1.5 6.2c-0.3 1.5-0.7 3.8-0.7 5.2zm1.4-9.2c-0.3 0-0.5 0.1-0.9 0.1-2.2 0-4 2.5-4.1 4.7 0 1 0.4 1.7 1.3 1.7 1.1 0 2.4-0.9 3.1-3.8z"/>
			</g>
			<g id="g2607">
				<path id="path2609" fill-rule="evenodd" class="s0" d="m67.8 98.3c0.6 0.1 1.9 0.2 3 0.2 0.9 0 1.5 0.1 1.5-0.5 0-0.6-0.3-1-1.4-1.5-1.3-0.7-2.3-1.7-2.3-3.2 0.2-2.4 2.3-4 5.3-4 1.4 0 2.4 0.2 3 0.5l-1 2.5c-0.4-0.1-1.2-0.2-2.3-0.2-0.9 0-1.5 0.1-1.5 0.7 0 0.5 0.4 0.9 1.3 1.4 1.3 0.6 2.5 1.6 2.5 3.2-0.2 2.5-2.5 3.9-5.6 3.8-1.4 0-2.8 0-3.5-0.5z"/>
			</g>
			<g id="g2611">
				<path id="path2613" fill-rule="evenodd" class="s0" d="m81.7 101.2l2.8-11.4h3.4l-2.8 11.4zm3.3-15.1c0.1-1.1 1.1-1.8 2.2-1.8 1.1 0 1.8 0.4 1.8 1.5-0.1 1.7-1.1 2.6-2.3 2.6-1 0-1.7-1.2-1.7-2.3z"/>
			</g>
			<g id="g2615">
				<path id="path2617" fill-rule="evenodd" class="s0" d="m88.2 101.2l1.9-7.9q0.5-2 0.8-3.5h3l-0.3 2.1h0.1c1.1-1.5 2.6-2.2 4.1-2.2 1.9 0 3 0.7 2.8 2.8 0 0.5-0.1 1.4-0.2 2l-1.7 6.7h-3.4l1.6-6.4c0.1-0.4 0.1-0.9 0.1-1.3 0.1-0.6-0.2-1-1-1-1.2 0-2.5 1-3.1 3.6l-1.2 5.1z"/>
			</g>
			<g id="g2619">
				<path id="path2621" fill-rule="evenodd" class="s0" d="m110.2 84.8h9.4l-0.8 3.2h-5.9l-0.9 4.1h5.6l-0.8 2.7h-5.5l-1.5 6.4h-3.5z"/>
			</g>
			<g id="g2623">
				<path id="path2625" fill-rule="evenodd" class="s0" d="m118.2 101.2l1.7-6.9c0.4-1.7 0.7-3.6 0.8-4.5h3q-0.2 1.1-0.4 2.3h0.1c0.9-1.6 2.3-2.8 3.8-2.8q0.4 0 0.7 0.1l-0.9 3.3c-0.1-0.1-0.3-0.2-0.5-0.2-2.1 0-3.3 2.1-3.8 4.4l-1 4.3z"/>
			</g>
			<g id="g2627">
				<path id="path2629" fill-rule="evenodd" class="s0" d="m137 100.7c-1.4 0.4-3.1 0.5-4.4 0.5-3.3 0-4.9-1.5-4.8-4.6 0.2-3.6 3-7.3 7.1-7.3 2.4 0 4 1.3 3.9 3.5-0.1 2.9-3.1 4-7.7 3.9 0 0.3 0.1 0.9 0.3 1.3 0.4 0.3 1.2 0.5 2.2 0.5 1.2 0 2.3 0.1 3.3-0.3zm-2.6-8.6c-1.6 0-2.6 0.8-2.9 1.8 2.7 0 4-0.1 4.1-1.1 0-0.4-0.4-0.7-1.2-0.7z"/>
			</g>
			<g id="g2631">
				<path id="path2633" fill-rule="evenodd" class="s0" d="m149.1 100.7c-1.4 0.4-3.1 0.5-4.4 0.5-3.3 0-4.9-1.5-4.7-4.6 0.1-3.6 2.9-7.3 7.1-7.3 2.3 0 4 1.3 3.8 3.5-0.1 2.9-3 4-7.7 3.9 0 0.3 0.1 0.9 0.3 1.3 0.4 0.3 1.2 0.5 2.2 0.5 1.3 0 2.3 0.1 3.3-0.3zm-2.6-8.6c-1.6 0-2.5 0.8-2.8 1.8 2.6 0 4-0.1 4-1.1 0.1-0.4-0.4-0.7-1.2-0.7z"/>
			</g>
			<g id="g2635">
				<path id="path2637" fill-rule="evenodd" class="s0" d="m165.9 84.3l-2.9 12.4c-0.4 1.5-0.7 3.2-0.8 4.5h-3.1l0.3-2.1h-0.1c-1.1 1.5-2.5 2.1-3.9 2.1-2 0-3.5-1.2-3.4-4 0.2-4.1 3.3-7.9 7.7-7.9 0.5 0 1.1 0 1.6 0.2l1.3-5.2zm-5.3 8c-0.3-0.1-0.8-0.2-1.4-0.2-2 0-3.6 2.2-3.7 4.5 0 1.2 0.5 1.9 1.5 1.9 1 0 2.3-0.8 2.8-3z"/>
			</g>
			<g id="g2639">
				<path id="path2641" fill-rule="evenodd" class="s0" d="m165.6 96.7c0.2-4 3.2-7.4 7.3-7.4 3.2 0 4.8 2.1 4.7 4.8-0.2 4.1-3.3 7.1-7.3 7.1-2.9 0-4.8-1.5-4.7-4.5zm8.5-2.6c0-1-0.4-2-1.8-2-1.9 0-3.1 2.7-3.2 4.5 0 1.2 0.6 1.9 1.8 1.9 1.8 0 3.1-2.3 3.2-4.4z"/>
			</g>
			<g id="g2643">
				<path id="path2645" fill-rule="evenodd" class="s0" d="m178.6 101.2l1.8-7.9c0.4-1.3 0.6-2.5 0.8-3.5h2.9l-0.3 1.7h0.1c1.1-1.5 2.5-2.2 4-2.2 1.9 0 2.6 1.1 2.7 2.2 1.1-1.5 2.6-2.2 4.1-2.2 1.8 0 2.8 1.1 2.7 3.1-0.1 0.5-0.2 1.5-0.3 2.1l-1.6 6.7h-3.4l1.5-6.3c0.1-0.5 0.2-1 0.3-1.5 0-0.8-0.3-1.3-1.1-1.3-1.1 0-2.4 1.5-2.9 3.9l-1.3 5.2h-3.3l1.6-6.4c0.1-0.4 0.2-0.9 0.2-1.3 0-0.8-0.2-1.4-1-1.4-1.2 0-2.5 1.6-3 3.9l-1.2 5.2z"/>
			</g>
			<path id="path2647" class="s1" d="m170.7 10.4c4.8-2.3 10.4-3.7 14.2-4h2.8q1.5 0.2 2.8 0.6c1.9 0.7 3.2 1.9 3.8 3.6 1.9 5.1-3.4 13.3-12.3 20 2 0.2 3.5 0.8 4.4 2.1 1.5 2 1.2 5.1-0.7 8.8-1.7 3.6-4.9 7.7-9 11.6q-2.2 2.1-4.7 4.1-2.6 2.3-5.5 4.4c-5.8 4.3-11.7 7.8-17.5 10.6q-3.9 1.9-7.7 3.2-5.1 1.9-9.6 2.8-2.7 0.5-5.1 0.7h-5.1c-4.8-0.4-8.5-2.1-10.7-5.2q-0.7-0.8-1.1-1.8-0.3-0.7-0.6-1.4"/>
		</g>
	</g>
</svg>